<svg xmlns="http://www.w3.org/2000/svg" viewBox="0 0 100 100">
  <rect width="100" height="100" rx="20" fill="#1a0a00"/>
  <!-- Adobe Firefly: flame icon -->
  <defs>
    <linearGradient id="fireGrad" x1="0%" y1="100%" x2="100%" y2="0%">
      <stop offset="0%" stop-color="#ff3d00"/>
      <stop offset="50%" stop-color="#ff6d00"/>
      <stop offset="100%" stop-color="#ffca28"/>
    </linearGradient>
  </defs>
  <!-- Outer flame -->
  <path fill="url(#fireGrad)" d="M50 82 C35 75 22 60 26 42 C28 33 34 26 42 20 C39 30 44 36 50 32 C46 44 54 50 58 42 C66 56 62 75 50 82z"/>
  <!-- Inner glow -->
  <path fill="#ffca28" opacity="0.6" d="M50 75 C42 68 36 56 40 46 C43 40 48 38 50 34 C48 42 54 46 56 42 C60 52 57 67 50 75z"/>
</svg>
